{
  "title": "Doctor Who Season 9 S09 720p BluRay ~{KiNg}",
  "uid": 14755700,
  "size": 5447847679,
  "categoryP": "video",
  "categoryS": "hd___tv_shows",
  "magnet": "?xt=urn:btih:82e3a141a9589018392e8b54c1c1bf6b6007f51c&amp;dn=Doctor+Who+Season+9+S09+720p+BluRay+%7E%7BKiNg%7D&amp;tr=udp%3A%2F%2Ftracker.leechers-paradise.org%3A6969&amp;tr=udp%3A%2F%2Fzer0day.ch%3A1337&amp;tr=udp%3A%2F%2Fopen.demonii.com%3A1337&amp;tr=udp%3A%2F%2Ftracker.coppersurfer.tk%3A6969&amp;tr=udp%3A%2F%2Fexodus.desync.com%3A6969",
  "seeders": 73,
  "leechers": 31,
  "uploader": "Uplaoderking",
  "files": 13,
  "time": 1464809944,
  "description": "[b]General[/b]\r\nFormat : Matroska\r\nFormat version : Version 4 / Version 2\r\nFile size : 391 MiB\r\nDuration : 46mn 20s\r\nOverall bit rate : 1 181 Kbps\r\n\r\n[b]Video[/b]\r\nID : 1\r\nFormat : AVC\r\nFormat/Info : Advanced Video Codec\r\nFormat profile :   \r\nFormat settings, CABAC : Yes\r\nFormat settings, ReFrames : 4 frames\r\nCodec ID : V_MPEG4/ISO/AVC\r\nDuration : 46mn 20s\r\nBit rate : 1 087 Kbps\r\nWidth : 1 280 pixels\r\nHeight : 720 pixels\r\nDisplay aspect ratio : 16:9\r\nFrame rate mode : Constant\r\nFrame rate : 25.000 fps\r\nColor space : YUV\r\nChroma subsampling : 4:2:0\r\nBit depth : 8 bits\r\nScan type : Progressive\r\nBits/(Pixel*Frame) : 0.047\r\nStream size : 360 MiB (92%)\r\n\r\n[b]Audio[/b]\r\nID : 2\r\nFormat : AAC\r\nFormat/Info : Advanced Audio Codec\r\nFormat profile : LC\r\nCodec ID : A_AAC\r\nDuration : 46mn 20s\r\nBit rate : 90.8 Kbps\r\nChannel(s) : 2 channels\r\nChannel positions : Front: L R\r\nSampling rate : 48.0 KHz\r\nFrame rate : 46.875 fps (1024 spf)\r\nCompression mode : Lossy\r\nDelay relative to video : 9ms\r\nStream size : 30.1 MiB (8%)\r\nLanguage : English\r\nDefault : No\r\nForced : No",
  "parsed": {
    "xt": "urn:btih:82e3a141a9589018392e8b54c1c1bf6b6007f51c",
    "dn": "Doctor Who Season 9 S09 720p BluRay ~{KiNg}",
    "tr": [
      "udp://exodus.desync.com:6969",
      "udp://open.demonii.com:1337",
      "udp://tracker.coppersurfer.tk:6969",
      "udp://tracker.leechers-paradise.org:6969",
      "udp://zer0day.ch:1337"
    ],
    "infoHash": "82e3a141a9589018392e8b54c1c1bf6b6007f51c",
    "infoHashBuffer": {
      "type": "Buffer",
      "data": [
        130,
        227,
        161,
        65,
        169,
        88,
        144,
        24,
        57,
        46,
        139,
        84,
        193,
        193,
        191,
        107,
        96,
        7,
        245,
        28
      ]
    },
    "name": "Doctor Who Season 9 S09 720p BluRay ~{KiNg}",
    "announce": [
      "udp://exodus.desync.com:6969",
      "udp://open.demonii.com:1337",
      "udp://tracker.coppersurfer.tk:6969",
      "udp://tracker.leechers-paradise.org:6969",
      "udp://zer0day.ch:1337"
    ],
    "urlList": []
  },
  "previous": 104,
  "peers": 201,
  "last_updated": "2016-12-25T06:20:27.619Z"
}